<?xml version="1.0" standalone="no"?>
<!DOCTYPE svg PUBLIC "-//W3C//DTD SVG 20010904//EN"
 "http://www.w3.org/TR/2001/REC-SVG-20010904/DTD/svg10.dtd">
<svg version="1.0" xmlns="http://www.w3.org/2000/svg"
 width="512.000000pt" height="512.000000pt" viewBox="0 0 512.000000 512.000000"
 preserveAspectRatio="xMidYMid meet">

<g transform="translate(0.000000,512.000000) scale(0.100000,-0.100000)"
fill="#000000" stroke="none">
<path d="M2440 5105 c-139 -39 -191 -80 -361 -291 -133 -164 -151 -181 -216
-199 -14 -4 -105 16 -231 49 -171 46 -222 56 -289 56 -102 0 -190 -26 -272
-81 -78 -52 -125 -107 -167 -194 -40 -84 -51 -148 -59 -360 -11 -271 -8 -267
-252 -360 -98 -37 -205 -81 -238 -99 -170 -89 -276 -298 -248 -491 13 -95 42
-155 161 -338 123 -188 122 -187 122 -237 0 -50 1 -49 -122 -237 -119 -183
-148 -243 -161 -338 -28 -193 78 -402 248 -491 33 -18 140 -62 238 -99 244
-93 241 -89 252 -360 9 -215 19 -277 60 -360 43 -89 89 -143 166 -194 82 -55
170 -81 272 -81 67 0 118 10 289 55 182 49 212 55 245 46 21 -6 46 -16 56 -23
9 -7 79 -89 154 -182 151 -185 203 -230 313 -268 91 -32 229 -32 320 0 110 38
162 83 313 268 75 93 145 175 154 182 10 7 35 17 56 23 33 9 63 3 245 -46 171
-45 222 -55 289 -55 102 0 190 26 272 81 77 51 123 105 166 194 41 83 51 145
60 360 11 271 8 267 264 365 101 38 206 82 234 97 163 89 267 300 240 488 -13
95 -42 155 -161 338 -123 188 -122 187 -122 237 0 50 -1 49 122 237 119 183
148 243 161 338 27 188 -77 399 -240 488 -28 15 -133 59 -234 97 -256 98 -253
94 -264 365 -9 215 -19 277 -60 360 -43 89 -89 143 -166 194 -82 55 -170 81
-272 81 -67 0 -118 -10 -289 -56 -126 -33 -217 -53 -231 -49 -65 18 -83 35
-216 200 -152 188 -205 234 -310 273 -84 31 -212 38 -291 17z m200 -344 c24
-17 47 -43 230 -265 129 -156 236 -211 410 -211 83 1 119 7 286 53 105 29 204
52 220 52 43 0 105 -40 125 -80 15 -28 21 -77 29 -235 6 -110 15 -223 21 -251
23 -118 108 -241 214 -309 28 -18 136 -65 240 -105 105 -40 201 -82 213 -94
40 -36 55 -74 50 -130 -4 -45 -19 -73 -121 -229 -136 -209 -161 -270 -161
-397 0 -127 25 -188 161 -397 102 -156 117 -184 121 -229 5 -56 -10 -94 -50
-130 -12 -12 -108 -54 -213 -94 -104 -40 -212 -87 -240 -105 -106 -68 -191
-191 -214 -309 -6 -28 -15 -141 -21 -251 -8 -158 -14 -207 -29 -235 -21 -40
-82 -80 -126 -80 -16 0 -115 23 -220 52 -166 46 -202 52 -285 53 -174 0 -281
-55 -410 -211 -246 -298 -234 -286 -310 -286 -76 0 -64 -12 -310 286 -129 156
-236 211 -410 211 -83 -1 -119 -7 -285 -53 -105 -29 -204 -52 -220 -52 -44 0
-105 40 -126 80 -15 28 -21 77 -29 235 -6 110 -15 223 -21 251 -23 118 -108
241 -214 309 -27 18 -135 65 -240 105 -104 40 -201 82 -213 94 -40 36 -55 74
-50 130 4 45 19 73 121 229 136 209 161 270 161 397 0 127 -25 188 -161 397
-102 156 -117 184 -121 229 -5 56 10 94 50 130 12 12 97 50 188 84 217 83 272
111 342 178 66 62 120 160 137 244 5 29 15 143 21 253 8 158 14 207 29 235 21
40 82 80 126 80 17 0 114 -23 215 -50 221 -61 297 -69 402 -46 74 16 167 63
217 109 13 12 79 90 146 172 68 83 134 160 148 173 47 44 125 50 177 13z"/>
<path d="M1788 3447 c-100 -38 -158 -89 -206 -181 -22 -43 -26 -64 -27 -136 0
-72 4 -94 26 -141 123 -261 477 -260 607 1 23 46 27 68 27 135 -1 135 -64 239
-181 296 -76 38 -184 49 -246 26z"/>
<path d="M3200 3441 c-19 -11 -393 -379 -831 -818 -852 -854 -828 -826 -816
-915 7 -49 49 -106 93 -124 40 -17 107 -18 137 -3 31 16 1625 1608 1643 1641
35 67 9 161 -58 211 -39 29 -123 33 -168 8z"/>
<path d="M2982 2208 c-74 -28 -153 -108 -182 -185 -30 -79 -26 -196 10 -268
30 -61 94 -125 157 -156 40 -20 63 -24 143 -24 84 0 101 3 147 28 66 34 116
84 150 150 25 46 28 63 28 147 0 114 -22 168 -97 242 -88 86 -234 113 -356 66z"/>
</g>
</svg>
