<?xml version="1.0" standalone="no"?>
<!DOCTYPE svg PUBLIC "-//W3C//DTD SVG 20010904//EN"
 "http://www.w3.org/TR/2001/REC-SVG-20010904/DTD/svg10.dtd">
<svg version="1.0" xmlns="http://www.w3.org/2000/svg"
 width="512.000000pt" height="512.000000pt" viewBox="0 0 512.000000 512.000000"
 preserveAspectRatio="xMidYMid meet">

<g transform="translate(0.000000,512.000000) scale(0.100000,-0.100000)"
fill="#000000" stroke="none">
<path d="M2303 5096 c-85 -40 -133 -128 -133 -246 l0 -40 -354 0 c-342 0 -354
-1 -380 -21 -34 -27 -36 -79 -4 -109 20 -18 35 -20 150 -20 l128 0 0 -80 0
-80 -364 0 c-343 0 -365 -1 -387 -19 l-24 -19 0 -2057 0 -2057 24 -19 c22 -18
48 -19 665 -19 680 1 659 -1 685 48 15 28 -1 77 -30 92 -11 6 -249 10 -608 10
l-591 0 0 1945 0 1945 320 0 c304 0 320 -1 320 -18 0 -37 61 -141 111 -187 27
-25 75 -58 107 -73 l57 -27 565 0 565 0 57 27 c32 15 80 48 107 73 50 46 111
150 111 187 0 17 16 18 320 18 l320 0 0 -1945 0 -1945 -748 0 c-813 0 -782 2
-796 -55 -7 -29 15 -79 39 -89 9 -3 374 -6 810 -6 766 0 794 1 816 19 l24 19
0 2057 0 2057 -24 19 c-22 18 -44 19 -387 19 l-364 0 0 80 0 80 470 0 470 0 0
-440 c0 -427 1 -441 20 -460 30 -30 83 -27 109 6 21 26 21 36 21 511 l0 484
-25 24 -24 25 -751 0 -750 0 0 40 c0 118 -48 206 -133 246 -50 23 -61 24 -257
24 -196 0 -207 -1 -257 -24z m457 -136 c22 -12 40 -61 40 -111 l0 -39 -240 0
-240 0 0 39 c0 48 15 92 37 109 21 15 375 17 403 2z m500 -442 c0 -129 -2
-148 -24 -194 -27 -58 -80 -106 -135 -123 -56 -16 -1029 -16 -1085 1 -54 16
-128 90 -144 144 -7 24 -12 99 -12 178 l0 136 700 0 700 0 0 -142z"/>
<path d="M645 4785 l-25 -24 0 -2356 0 -2356 25 -24 24 -25 1891 0 1891 0 24
25 25 24 0 1731 0 1731 -25 24 c-31 32 -69 32 -100 0 l-25 -24 0 -1681 0
-1680 -1790 0 -1790 0 0 2255 0 2255 205 0 c205 0 206 0 230 25 32 31 32 69 0
100 l-24 25 -256 0 -256 0 -24 -25z"/>
<path d="M1893 3856 l-28 -24 0 -187 c0 -184 0 -187 24 -206 22 -18 48 -19
671 -19 623 0 649 1 671 19 24 19 24 22 24 206 l0 187 -28 24 -28 24 -639 0
-639 0 -28 -24z m1215 -208 l3 -78 -551 0 -550 0 0 73 c0 41 3 77 7 80 3 4
250 6 547 5 l541 -3 3 -77z"/>
<path d="M1574 3261 c-134 -34 -209 -182 -158 -311 l17 -41 -60 -53 c-70 -64
-110 -137 -125 -230 -10 -61 -9 -69 9 -94 11 -14 31 -30 44 -33 13 -4 160 -7
327 -8 390 -1 393 0 379 136 -10 95 -81 208 -165 265 -23 15 -23 17 -8 46 56
108 5 252 -107 305 -43 21 -111 29 -153 18z m108 -171 c25 -26 29 -36 24 -63
-12 -64 -86 -89 -133 -45 -39 37 -29 99 22 126 33 18 55 14 87 -18z m62 -318
c44 -24 106 -96 106 -124 0 -4 -99 -8 -220 -8 -169 0 -220 3 -220 13 0 22 38
74 74 102 78 60 170 66 260 17z"/>
<path d="M2564 3077 c-16 -18 -60 -79 -99 -135 l-70 -101 -57 56 c-45 44 -64
56 -88 56 -41 0 -73 -32 -73 -73 0 -26 15 -47 94 -126 97 -98 124 -114 163
-96 29 13 255 335 263 373 4 21 -1 34 -20 53 -37 37 -78 35 -113 -7z"/>
<path d="M2850 2953 c-51 -19 -68 -85 -30 -123 19 -19 33 -20 519 -20 l500 0
20 26 c28 36 26 60 -8 95 l-29 29 -479 -1 c-263 0 -485 -3 -493 -6z"/>
<path d="M2850 2643 c-52 -20 -68 -85 -30 -123 19 -19 33 -20 363 -20 315 0
345 1 360 18 29 32 31 67 4 98 l-25 29 -329 2 c-180 1 -335 -1 -343 -4z"/>
<path d="M1568 2326 c-133 -35 -205 -188 -148 -313 10 -24 15 -43 11 -43 -5 0
-32 -21 -60 -46 -62 -56 -117 -163 -127 -246 -6 -55 -5 -59 25 -88 l30 -31
337 3 336 3 20 25 c29 36 21 138 -17 216 -28 56 -88 126 -135 156 -20 12 -22
18 -13 29 6 8 17 36 24 62 41 164 -117 317 -283 273z m120 -172 c44 -50 11
-124 -56 -124 -90 0 -115 116 -31 149 32 13 59 5 87 -25z m47 -307 c17 -9 37
-22 46 -29 19 -16 69 -87 69 -99 0 -5 -99 -9 -220 -9 -246 0 -241 -2 -191 67
67 92 199 124 296 70z"/>
<path d="M2234 2023 c-12 -2 -30 -13 -40 -25 -17 -18 -19 -39 -19 -204 0 -246
-17 -229 230 -229 247 0 230 -17 230 230 0 245 14 229 -213 232 -92 0 -177 -1
-188 -4z m246 -228 l0 -86 -77 3 -78 3 -3 69 c-2 38 -1 75 2 83 4 9 27 13 81
13 l75 0 0 -85z"/>
<path d="M2855 2023 c-36 -9 -55 -34 -55 -73 0 -73 -24 -70 538 -70 l501 0 20
26 c27 35 26 57 -3 91 l-24 28 -479 2 c-263 0 -487 -1 -498 -4z"/>
<path d="M2817 1692 c-24 -27 -22 -85 4 -108 20 -18 41 -19 361 -19 l340 0 25
29 c27 31 25 66 -4 99 -15 16 -45 17 -363 17 -323 0 -348 -1 -363 -18z"/>
<path d="M1535 1381 c-115 -53 -167 -186 -115 -298 l19 -42 -34 -21 c-74 -46
-135 -142 -155 -248 -15 -73 -4 -113 36 -131 17 -7 129 -11 348 -11 316 0 324
0 351 22 26 20 27 24 23 92 -7 108 -69 216 -161 281 l-28 20 18 35 c39 78 15
197 -54 262 -61 58 -169 75 -248 39z m150 -156 c14 -13 25 -35 25 -48 0 -32
-33 -73 -65 -81 -29 -7 -79 15 -89 39 -33 86 65 154 129 90z m33 -301 c54 -22
132 -104 132 -139 0 -3 -99 -5 -220 -5 -174 0 -220 3 -220 13 0 7 14 32 30 54
60 81 185 116 278 77z"/>
<path d="M2199 1071 c-24 -19 -24 -22 -24 -206 l0 -187 28 -24 c27 -23 33 -24
202 -24 169 0 175 1 202 24 28 24 28 25 31 166 5 166 -2 224 -29 251 -17 17
-35 19 -203 19 -166 0 -186 -2 -207 -19z m281 -211 l0 -81 -77 3 -78 3 -3 78
-3 77 81 0 80 0 0 -80z"/>
<path d="M2820 1070 c-27 -27 -26 -81 1 -106 20 -18 45 -19 511 -22 l489 -3
29 30 c35 35 38 59 9 95 l-20 26 -500 0 c-486 0 -500 -1 -519 -20z"/>
<path d="M2820 760 c-30 -30 -27 -83 6 -109 26 -20 38 -21 356 -21 l330 0 30
30 c24 25 29 36 24 58 -4 15 -16 35 -28 45 -18 15 -51 17 -359 17 -326 0 -340
-1 -359 -20z"/>
</g>
</svg>
